<svg width="19" height="19" viewBox="0 0 19 19" fill="none" xmlns="http://www.w3.org/2000/svg">
<path fill-rule="evenodd" clip-rule="evenodd" d="M12.0356 16.7366C11.614 17.0933 11.5614 17.7243 11.9182 18.1459C12.2749 18.5675 12.9059 18.6201 13.3275 18.2634L17.1457 15.0326L18.0479 14.2692L17.1457 13.5058L13.3275 10.2751C12.9059 9.91831 12.2749 9.97089 11.9182 10.3925C11.5614 10.8141 11.614 11.4451 12.0356 11.8018L13.7698 13.2692L2.49966 13.2692C1.94737 13.2692 1.49966 13.7169 1.49966 14.2692C1.49966 14.8215 1.94737 15.2692 2.49966 15.2692L13.7698 15.2692L12.0356 16.7366Z" fill="black"/>
<path fill-rule="evenodd" clip-rule="evenodd" d="M6.96406 2.26325C7.38566 1.90651 7.43825 1.27553 7.0815 0.853923C6.72476 0.432316 6.09378 0.379735 5.67217 0.736479L1.85399 3.96725L0.951807 4.73064L1.85399 5.49402L5.67217 8.72479C6.09378 9.08153 6.72476 9.02895 7.0815 8.60735C7.43824 8.18574 7.38566 7.55476 6.96406 7.19802L5.22988 5.73064L16.5 5.73064C17.0523 5.73064 17.5 5.28292 17.5 4.73064C17.5 4.17836 17.0523 3.73064 16.5 3.73064L5.22987 3.73064L6.96406 2.26325Z" fill="black"/>
</svg>
