<svg width="50" height="50" viewBox="0 0 50 50" fill="none" xmlns="http://www.w3.org/2000/svg">
<path fill-rule="evenodd" clip-rule="evenodd" d="M22.9975 25.8151L27.5375 27.0315C29.6562 27.5993 30.5388 29.3496 29.9477 31.3539C29.5558 32.8167 28.5484 33.9525 27.2026 34.1326C26.6946 34.2127 26.0253 34.0873 25.4705 33.9387L21.1323 32.7762L22.9975 25.8151ZM31.1073 18.1481C31.88 18.8959 32.0637 20.0264 31.7529 21.1865C31.2663 23.0025 29.869 23.9798 28.0531 23.4932L23.9166 22.3848L25.5521 16.2811L29.1841 17.2543C29.9912 17.4705 30.6704 17.7608 31.1073 18.1481ZM24.9415 37.5275C24.3107 39.8816 23.9953 41.0587 23.9953 41.0587C23.9953 41.0587 23.2049 40.8469 21.6243 40.4234L22.5705 36.8922L20.0988 36.2299C19.468 38.584 19.1526 39.7611 19.1526 39.7611C19.1526 39.7611 18.3623 39.5493 16.7817 39.1258L17.7279 35.5946C14.5667 34.7476 12.9861 34.324 12.9861 34.324C12.9861 34.324 13.2744 33.248 13.8511 31.0958L15.3141 31.4878C16.0706 31.6905 16.7878 31.2338 16.977 30.5276L20.8021 16.2519C21.0049 15.4953 20.5482 14.7783 19.8421 14.5891C18.8668 14.3277 18.3791 14.1971 18.3791 14.1971C18.3791 14.1971 18.6675 13.1209 19.2442 10.9686L23.986 12.2392C24.6168 9.8851 24.9322 8.70807 24.9322 8.70807C24.9322 8.70807 25.7224 8.91983 27.303 9.34334L26.3568 12.8744L28.8286 13.5367C29.4593 11.1827 29.7747 10.0056 29.7747 10.0056C29.7747 10.0056 30.565 10.2174 32.1457 10.6409L31.186 14.2224C32.3831 14.5973 33.3009 15.0054 34.1513 15.6658C36.0537 17.0405 36.9895 19.3998 36.2867 22.023C35.6919 24.2426 34.1963 25.7881 32.0731 26.2464C34.4664 27.8069 35.0184 30.3877 34.3561 32.8595C33.4542 36.0239 30.7137 37.7766 27.9752 37.908C26.8854 37.9402 25.9503 37.7978 24.9415 37.5275ZM1.03917 18.5797C-2.50212 31.796 5.36333 45.4197 18.5798 48.961C31.7961 52.5023 45.4198 44.6366 48.9611 31.4203C52.5024 18.204 44.6368 4.5804 31.4204 1.03909C18.204 -2.50225 4.58047 5.36337 1.03917 18.5797Z" fill="#F28931"/>
</svg>
