<svg width="50" height="50" viewBox="0 0 50 50" fill="none" xmlns="http://www.w3.org/2000/svg">
<path fill-rule="evenodd" clip-rule="evenodd" d="M23.2771 26.3056L27.9773 26.3056C30.1707 26.3056 31.4762 27.7679 31.4241 29.8568C31.4241 31.3713 30.745 32.7291 29.4917 33.2514C29.0217 33.4602 28.3428 33.5123 27.7684 33.5123L23.2771 33.5123L23.2771 26.3056ZM29.1262 16.801C30.0661 17.3232 30.5362 18.3677 30.5362 19.5687C30.5362 21.4488 29.4394 22.7544 27.5595 22.7544L23.277 22.7544L23.277 16.4353L27.0372 16.4353C27.8727 16.4353 28.6039 16.5399 29.1262 16.801ZM28.1862 37.1158C28.1862 39.553 28.1862 40.7716 28.1862 40.7716C28.1862 40.7716 27.368 40.7716 25.7316 40.7716L25.7316 37.1158L23.1727 37.1158C23.1727 39.553 23.1727 40.7716 23.1727 40.7716C23.1727 40.7716 22.3545 40.7716 20.7182 40.7716L20.7182 37.1158C17.4455 37.1158 15.8091 37.1158 15.8091 37.1158C15.8091 37.1158 15.8091 36.0018 15.8091 33.7737L17.3237 33.7737C18.1069 33.7737 18.6814 33.1469 18.6814 32.4158L18.6814 17.6366C18.6814 16.8532 18.0548 16.2788 17.3237 16.2788C16.314 16.2788 15.8091 16.2788 15.8091 16.2788C15.8091 16.2788 15.8091 15.1647 15.8091 12.9364L20.7182 12.9364C20.7182 10.4994 20.7182 9.2808 20.7182 9.2808C20.7182 9.2808 21.5364 9.2808 23.1727 9.2808L23.1727 12.9364L25.7316 12.9364C25.7316 10.4994 25.7316 9.2808 25.7316 9.2808C25.7316 9.2808 26.5498 9.2808 28.1862 9.2808L28.1862 12.9886C29.4395 13.0409 30.4317 13.1976 31.4241 13.6154C33.6174 14.4509 35.132 16.4875 35.132 19.2033C35.132 21.5012 34.0874 23.3811 32.1551 24.3733C34.8707 25.2612 36.0719 27.6112 36.0719 30.1702C36.0198 33.4602 33.8263 35.8625 31.2151 36.6981C30.1707 37.0114 29.2307 37.1158 28.1862 37.1158ZM0.194337 25C0.194337 38.6825 11.3179 49.8062 25.0005 49.8062C38.6831 49.8062 49.8067 38.6825 49.8067 25C49.8067 11.3175 38.6831 0.193849 25.0005 0.193848C11.3179 0.193848 0.194336 11.3175 0.194337 25Z" fill="#EBBF24"/>
</svg>
