<svg width="62" height="62" viewBox="0 0 62 62" fill="none" xmlns="http://www.w3.org/2000/svg">
<circle cx="31" cy="31" r="31" fill="#6DE0F6"/>
<path fill-rule="evenodd" clip-rule="evenodd" d="M21.6397 9.65991C16.393 9.65991 12.1397 13.9132 12.1397 19.1599V28.1399H8.67969C7.85126 28.1399 7.17969 28.8115 7.17969 29.6399C7.17969 30.4683 7.85126 31.1399 8.67969 31.1399L53.3197 31.1399C54.1481 31.1399 54.8197 30.4683 54.8197 29.6399C54.8197 28.8115 54.1481 28.1399 53.3197 28.1399H49.8597V19.1599C49.8597 13.9132 45.6064 9.65991 40.3597 9.65991H21.6397ZM46.8597 28.1399V19.1599C46.8597 15.5701 43.9495 12.6599 40.3597 12.6599H21.6397C18.0498 12.6599 15.1397 15.5701 15.1397 19.1599V28.1399L46.8597 28.1399ZM26.5196 41.5101C26.37 41.6848 26.2797 41.9118 26.2797 42.1599C26.2797 42.3293 26.3218 42.4889 26.3962 42.6288C25.9026 44.7663 23.9872 46.3599 21.6997 46.3599C19.0377 46.3599 16.8797 44.2019 16.8797 41.5399C16.8797 38.8779 19.0377 36.7199 21.6997 36.7199C24.3517 36.7199 26.5035 38.8618 26.5196 41.5101ZM28.5093 41.1599C28.3121 37.5701 25.3388 34.7199 21.6997 34.7199C17.9331 34.7199 14.8797 37.7733 14.8797 41.5399C14.8797 45.3065 17.9331 48.3599 21.6997 48.3599C24.9081 48.3599 27.599 46.1445 28.3261 43.1599H32.4333C33.1604 46.1445 35.8513 48.3599 39.0597 48.3599C42.8263 48.3599 45.8797 45.3065 45.8797 41.5399C45.8797 37.7733 42.8263 34.7199 39.0597 34.7199C35.4206 34.7199 32.4472 37.5701 32.2501 41.1599H28.5093ZM34.3632 42.6288C34.4375 42.4889 34.4797 42.3293 34.4797 42.1599C34.4797 41.9118 34.3893 41.6849 34.2398 41.5101C34.2558 38.8618 36.4076 36.7199 39.0597 36.7199C41.7217 36.7199 43.8797 38.8779 43.8797 41.5399C43.8797 44.2019 41.7217 46.3599 39.0597 46.3599C36.7721 46.3599 34.8568 44.7663 34.3632 42.6288Z" fill="url(#paint0_radial_472_4036)"/>
<defs>
<radialGradient id="paint0_radial_472_4036" cx="0" cy="0" r="1" gradientUnits="userSpaceOnUse" gradientTransform="translate(16.7529 30.4453) scale(41.2348 44.6624)">
<stop offset="0.01" stop-color="#2C35A2"/>
<stop offset="0.16" stop-color="#252C88"/>
<stop offset="0.4" stop-color="#1B2167"/>
<stop offset="0.62" stop-color="#15194F"/>
<stop offset="0.83" stop-color="#101540"/>
<stop offset="1" stop-color="#0F133B"/>
</radialGradient>
</defs>
</svg>
