<svg width="62" height="62" viewBox="0 0 62 62" fill="none" xmlns="http://www.w3.org/2000/svg">
<circle cx="31" cy="31" r="31" fill="#6DE0F6"/>
<path fill-rule="evenodd" clip-rule="evenodd" d="M16.827 7.97282C16.4365 7.5823 15.8033 7.5823 15.4128 7.97283C15.0223 8.36335 15.0223 8.99651 15.4128 9.38704L18.668 12.6422C18.6455 12.6407 18.6228 12.6399 18.5999 12.6399H15.7066C13.9067 12.6399 12.1804 13.355 10.9077 14.6277C9.63494 15.9004 8.91992 17.6267 8.91992 19.4266V22.3199C8.91992 22.8722 9.36764 23.3199 9.91992 23.3199C10.4722 23.3199 10.9199 22.8722 10.9199 22.3199V19.4266C10.9199 18.1571 11.4242 16.9396 12.3219 16.0419C13.2196 15.1442 14.4371 14.6399 15.7066 14.6399H18.5999C18.6228 14.6399 18.6455 14.6392 18.668 14.6377L15.4128 17.8928C15.0223 18.2833 15.0223 18.9165 15.4128 19.307C15.8033 19.6976 16.4365 19.6976 16.827 19.307L21.787 14.347C21.9746 14.1595 22.0799 13.9051 22.0799 13.6399C22.0799 13.3747 21.9746 13.1204 21.787 12.9328L16.827 7.97282ZM19.5976 13.708L19.6657 13.6399L19.5976 13.5719C19.5992 13.5944 19.5999 13.6171 19.5999 13.6399C19.5999 13.6628 19.5992 13.6855 19.5976 13.708ZM55.7999 34.9599C56.3522 34.9599 56.7999 35.4076 56.7999 35.9599V38.8533C56.7999 40.6532 56.0849 42.3794 54.8122 43.6522C53.5394 44.9249 51.8132 45.6399 50.0133 45.6399H47.1199C47.097 45.6399 47.0743 45.6392 47.0519 45.6377L50.307 48.8928C50.6976 49.2834 50.6976 49.9165 50.307 50.307C49.9165 50.6976 49.2833 50.6976 48.8928 50.307L43.9328 45.347C43.5423 44.9565 43.5423 44.3233 43.9328 43.9328L48.8928 38.9728C49.2833 38.5823 49.9165 38.5823 50.307 38.9728C50.6976 39.3633 50.6976 39.9965 50.307 40.387L47.0519 43.6422C47.0743 43.6407 47.097 43.6399 47.1199 43.6399H50.0133C51.2828 43.6399 52.5003 43.1356 53.3979 42.238C54.2956 41.3403 54.7999 40.1228 54.7999 38.8533V35.9599C54.7999 35.4076 55.2476 34.9599 55.7999 34.9599ZM46.1222 44.5719L46.0541 44.6399L46.1222 44.708C46.1207 44.6855 46.1199 44.6628 46.1199 44.6399C46.1199 44.6312 46.12 44.6224 46.1203 44.6137C46.1206 44.5997 46.1213 44.5857 46.1222 44.5719ZM39.7554 14.2294C37.8187 13.7449 35.7867 13.7956 33.8765 14.3762C31.9664 14.9568 30.2498 16.0454 28.9103 17.5258C27.7356 18.8242 26.8895 20.381 26.4379 22.0655C33.7984 22.2725 39.7274 28.2014 39.9343 35.5619C41.6188 35.1103 43.1757 34.2643 44.474 33.0895C45.9544 31.75 47.0431 30.0335 47.6237 28.1233C48.2043 26.2132 48.255 24.1812 47.7704 22.2444C47.2859 20.3077 46.2842 18.539 44.8726 17.1273C43.4609 15.7156 41.6922 14.714 39.7554 14.2294ZM39.6717 38.6912C39.7145 38.6865 39.7576 38.68 39.8006 38.6714C42.2924 38.1787 44.6034 37.0182 46.4869 35.314C48.3703 33.6099 49.7553 31.426 50.494 28.9958C51.2327 26.5656 51.2972 23.9804 50.6807 21.5163C50.0643 19.0523 48.7899 16.802 46.9939 15.006C45.1978 13.2099 42.9476 11.9356 40.4835 11.3191C38.0195 10.7026 35.4343 10.7672 33.0041 11.5058C30.5739 12.2445 28.39 13.6296 26.6858 15.513C24.9816 17.3964 23.8212 19.7075 23.3284 22.1992C23.3199 22.2423 23.3133 22.2853 23.3086 22.3282C16.9397 23.5972 12.1399 29.218 12.1399 35.9599C12.1399 43.6367 18.3632 49.8599 26.0399 49.8599C32.7818 49.8599 38.4027 45.0601 39.6717 38.6912ZM15.1399 35.9599C15.1399 29.94 20.02 25.0599 26.0399 25.0599C32.0598 25.0599 36.9399 29.94 36.9399 35.9599C36.9399 41.9798 32.0598 46.8599 26.0399 46.8599C20.02 46.8599 15.1399 41.9798 15.1399 35.9599Z" fill="url(#paint0_radial_472_3096)"/>
<defs>
<radialGradient id="paint0_radial_472_3096" cx="0" cy="0" r="1" gradientUnits="userSpaceOnUse" gradientTransform="translate(18.5414 30.7318) scale(41.4425 49.5325)">
<stop offset="0.01" stop-color="#2C35A2"/>
<stop offset="0.16" stop-color="#252C88"/>
<stop offset="0.4" stop-color="#1B2167"/>
<stop offset="0.62" stop-color="#15194F"/>
<stop offset="0.83" stop-color="#101540"/>
<stop offset="1" stop-color="#0F133B"/>
</radialGradient>
</defs>
</svg>
