<svg width="62" height="62" viewBox="0 0 62 62" fill="none" xmlns="http://www.w3.org/2000/svg">
<circle cx="31" cy="31" r="31" fill="#6DE0F6"/>
<path fill-rule="evenodd" clip-rule="evenodd" d="M43.7797 18.2449C43.81 18.0523 43.877 17.8719 43.9733 17.711C43.9158 17.6373 43.8338 17.5452 43.7176 17.435C43.2382 16.9803 42.384 16.4327 41.0801 15.9096C38.4887 14.8702 34.7029 14.1599 30.3683 14.1599C26.0338 14.1599 22.248 14.8702 19.6566 15.9096C18.3527 16.4327 17.4985 16.9803 17.0191 17.435C16.9202 17.5288 16.8461 17.6094 16.7907 17.6769C16.9077 17.861 16.9857 18.0725 17.013 18.2995L17.0191 18.3053C17.4985 18.76 18.3527 19.3076 19.6566 19.8307C22.248 20.8701 26.0338 21.5804 30.3683 21.5804C34.7029 21.5804 38.4887 20.8701 41.0801 19.8307C42.384 19.3076 43.2382 18.76 43.7176 18.3053C43.7395 18.2845 43.7602 18.2644 43.7797 18.2449ZM43.7613 21.8914C40.71 23.524 35.8467 24.5804 30.3683 24.5804C24.9189 24.5804 20.078 23.5351 17.0237 21.9171V27.0572C17.1266 27.1879 17.2472 27.3213 17.3873 27.4571C18.0181 28.069 18.9832 28.6661 20.2573 29.1888C22.8006 30.2322 26.3833 30.9007 30.3921 30.9007C34.4008 30.9007 37.9835 30.2322 40.5268 29.1888C41.8009 28.6661 42.766 28.069 43.3968 27.4571C43.5373 27.3209 43.6583 27.187 43.7613 27.0559V21.8914ZM43.7613 29.7289C43.0481 30.2226 42.2105 30.6599 41.2859 31.0392C38.4476 32.2036 34.5955 32.9007 30.3921 32.9007C26.1886 32.9007 22.3365 32.2036 19.4982 31.0392C18.574 30.66 17.7368 30.223 17.0237 29.7296V35.5958C17.1269 35.727 17.2479 35.8609 17.3885 35.9973C18.0193 36.6092 18.9844 37.2063 20.2585 37.729C22.8018 38.7724 26.3845 39.4409 30.3933 39.4409C34.402 39.4409 37.9847 38.7724 40.528 37.729C41.8021 37.2063 42.7672 36.6092 43.398 35.9973C43.538 35.8616 43.6585 35.7283 43.7613 35.5977V29.7289ZM43.7613 38.2699C43.0483 38.7633 42.2112 39.2003 41.2871 39.5793C38.4488 40.7438 34.5967 41.4409 30.3933 41.4409C26.1898 41.4409 22.3377 40.7438 19.4994 39.5793C18.5747 39.2 17.7371 38.7627 17.0237 38.269V42.881C17.0237 43.1922 17.1711 43.6303 17.7366 44.1788C18.3067 44.7317 19.2098 45.2987 20.4483 45.8068C22.9179 46.8199 26.4332 47.4812 30.3933 47.4812C34.3534 47.4812 37.8687 46.8199 40.3383 45.8068C41.5767 45.2987 42.4799 44.7317 43.0499 44.1788C43.5838 43.6609 43.745 43.2414 43.7613 42.9343V38.2699ZM46.7613 42.9894C46.7623 42.9534 46.7628 42.9173 46.7628 42.881H46.7613V19.2133C46.9812 18.7793 47.0965 18.3302 47.0965 17.8701C47.0965 14.1642 39.6071 11.1599 30.3683 11.1599C21.1296 11.1599 13.6401 14.1642 13.6401 17.8701C13.6401 18.3628 13.7725 18.8431 14.0237 19.3056V42.881V44.1011C14.0237 44.7057 14.3815 45.2268 14.8968 45.4642C15.1179 45.7748 15.3719 46.0645 15.6479 46.3322C16.5828 47.2389 17.8572 47.9864 19.3096 48.5823C22.2217 49.777 26.1412 50.4812 30.3933 50.4812C34.6454 50.4812 38.5648 49.777 41.4769 48.5823C42.9294 47.9864 44.2038 47.2389 45.1386 46.3322C45.4149 46.0642 45.6691 45.7741 45.8904 45.4632C46.4046 45.2253 46.7613 44.7049 46.7613 44.1011V42.9894Z" fill="url(#paint0_radial_472_4572)"/>
<defs>
<radialGradient id="paint0_radial_472_4572" cx="0" cy="0" r="1" gradientUnits="userSpaceOnUse" gradientTransform="translate(20.3632 32.279) scale(28.9582 45.3794)">
<stop offset="0.01" stop-color="#2C35A2"/>
<stop offset="0.16" stop-color="#252C88"/>
<stop offset="0.4" stop-color="#1B2167"/>
<stop offset="0.62" stop-color="#15194F"/>
<stop offset="0.83" stop-color="#101540"/>
<stop offset="1" stop-color="#0F133B"/>
</radialGradient>
</defs>
</svg>
