<svg width="20" height="20" viewBox="0 0 20 20" fill="none" xmlns="http://www.w3.org/2000/svg">
<path fill-rule="evenodd" clip-rule="evenodd" d="M12.5356 17.2364C12.114 17.5932 12.0614 18.2242 12.4182 18.6458C12.7749 19.0674 13.4059 19.12 13.8275 18.7632L17.6457 15.5324L18.5479 14.7691L17.6457 14.0057L13.8275 10.7749C13.4059 10.4182 12.7749 10.4707 12.4182 10.8923C12.0614 11.314 12.114 11.9449 12.5356 12.3017L14.2698 13.7691L2.99966 13.7691C2.44737 13.7691 1.99966 14.2168 1.99966 14.7691C1.99966 15.3213 2.44737 15.7691 2.99966 15.7691L14.2698 15.7691L12.5356 17.2364Z" fill="#6DE0F6"/>
<path fill-rule="evenodd" clip-rule="evenodd" d="M7.46406 2.76322C7.88566 2.40648 7.93825 1.7755 7.5815 1.35389C7.22476 0.932286 6.59378 0.879704 6.17217 1.23645L2.35399 4.46722L1.45181 5.23061L2.35399 5.99399L6.17217 9.22476C6.59378 9.5815 7.22476 9.52892 7.5815 9.10732C7.93824 8.68571 7.88566 8.05473 7.46406 7.69799L5.72988 6.23061L17 6.23061C17.5523 6.23061 18 5.78289 18 5.23061C18 4.67832 17.5523 4.23061 17 4.23061L5.72987 4.23061L7.46406 2.76322Z" fill="#6DE0F6"/>
</svg>
