<svg width="50" height="50" viewBox="0 0 50 50" fill="none" xmlns="http://www.w3.org/2000/svg">
<g clip-path="url(#clip0_409_2070)">
<path d="M50 25C50 38.8073 38.8073 50 25 50C11.1927 50 0 38.8073 0 25C0 11.1927 11.1927 0 25 0C38.8073 0 50 11.1927 50 25Z" fill="url(#paint0_linear_409_2070)"/>
<path fill-rule="evenodd" clip-rule="evenodd" d="M6 25.0001C6 14.5234 14.5234 6 25.0001 6C35.4768 6 44.0002 14.5234 44.0002 25.0001C44.0002 35.4768 35.4768 44.0002 25.0001 44.0002C14.5234 44.0002 6 35.4768 6 25.0001ZM9.18368 25.0001C9.18368 33.7216 16.279 40.8165 25.0001 40.8165C33.7212 40.8165 40.8165 33.7216 40.8165 25.0001C40.8165 16.279 33.7212 9.18368 25.0001 9.18368C16.279 9.18368 9.18368 16.279 9.18368 25.0001ZM27.2866 22.7872L22.4324 24.5523L20.4413 32.0812H34.3417L33.5566 35.032H16.6027L19.0505 25.7823L14.3044 27.508L15.2243 24.0296L19.9712 22.3035L22.5953 12.3864H25.65L23.3526 21.0739L28.2065 19.3088L27.2866 22.7872Z" fill="white"/>
</g>
<defs>
<linearGradient id="paint0_linear_409_2070" x1="0" y1="25" x2="50" y2="25" gradientUnits="userSpaceOnUse">
<stop stop-color="#00F38D"/>
<stop offset="1" stop-color="#009EFF"/>
</linearGradient>
<clipPath id="clip0_409_2070">
<rect width="50" height="50" fill="white"/>
</clipPath>
</defs>
</svg>
