<svg width="33" height="33" viewBox="0 0 33 33" fill="none" xmlns="http://www.w3.org/2000/svg">
<path d="M7.12286 2.8779C6.9248 2.13882 6.48913 1.48526 5.88303 1.01801C5.27691 0.55096 4.53398 0.296154 3.76876 0.292866L3.75967 0.292866C2.83998 0.292866 1.95796 0.65815 1.30764 1.30861C0.657332 1.95889 0.291991 2.84095 0.291991 3.76054L0.291991 3.76944C0.295338 4.53464 0.550224 5.27739 1.01735 5.88336C1.48448 6.48933 2.13795 6.92504 2.87703 7.12296C4.92909 7.68946 6.73866 8.91359 8.02821 10.6073C9.31777 12.3012 10.0161 14.3712 10.0161 16.5C10.0161 18.6288 9.31777 20.6989 8.02822 22.3927C6.73866 24.0865 4.92909 25.3105 2.87703 25.877C2.13801 26.0752 1.48464 26.5108 1.01762 27.1169C0.550592 27.723 0.295823 28.4658 0.292573 29.2309L0.292573 29.24C0.292573 30.1597 0.657913 31.0417 1.30823 31.692C1.95854 32.3423 2.84056 32.7077 3.76025 32.7077L3.76934 32.7077C4.53446 32.7043 5.27726 32.4494 5.88326 31.9823C6.48925 31.5152 6.92482 30.8617 7.12286 30.1226C7.68936 28.0706 8.91339 26.261 10.6072 24.9715C12.301 23.6819 14.371 22.9836 16.4999 22.9836C18.6287 22.9836 20.6987 23.6819 22.3926 24.9715C24.0865 26.261 25.3104 28.0706 25.8769 30.1226C26.075 30.8617 26.5105 31.5151 27.1165 31.9821C27.7225 32.4492 28.4652 32.7041 29.2302 32.7075L29.2393 32.7075C30.1591 32.7075 31.041 32.3421 31.6914 31.6918C32.3417 31.0415 32.707 30.1595 32.707 29.2398L32.707 29.2307C32.7037 28.4656 32.4487 27.7228 31.9816 27.1168C31.5144 26.5108 30.861 26.0752 30.1219 25.8772C28.0699 25.3107 26.2604 24.0866 24.9708 22.3929C23.6811 20.6991 22.9829 18.629 22.9829 16.5002C22.9829 14.3714 23.6811 12.3014 24.9708 10.6075C26.2604 8.91378 28.0699 7.68966 30.1219 7.12316C30.861 6.92523 31.5146 6.48952 31.9818 5.88355C32.4489 5.27758 32.7039 4.53464 32.7072 3.76944L32.7072 3.76034C32.7072 2.84075 32.3417 1.95869 31.6914 1.30842C31.0411 0.658145 30.1591 0.29267 29.2395 0.29267L29.2302 0.29267C28.465 0.295958 27.7223 0.550959 27.1163 1.01801C26.5103 1.48526 26.0748 2.13863 25.8767 2.87771C25.3102 4.92972 24.0863 6.7393 22.3924 8.02882C20.6985 9.31853 18.6285 10.0168 16.4997 10.0168C14.3708 10.0168 12.3008 9.31853 10.607 8.02882C8.9132 6.7393 7.68919 4.92972 7.12267 2.87771L7.12286 2.8779Z" fill="#D4088C"/>
</svg>
