<svg width="62" height="62" viewBox="0 0 62 62" fill="none" xmlns="http://www.w3.org/2000/svg">
<circle cx="31" cy="31" r="31" fill="#6DE0F6"/>
<path fill-rule="evenodd" clip-rule="evenodd" d="M29.3619 10.3522C27.7879 11.2184 25.0836 12.2209 22.0397 13.0978C18.9257 13.9949 15.62 14.7142 13.0899 15.0098C12.2896 15.1033 11.6567 15.731 11.5565 16.5304C10.9604 21.2889 11.1363 28.7593 13.6049 35.8606C16.0855 42.9964 20.9451 49.9063 29.7825 53.113C30.2473 53.2816 30.7369 53.2412 31.1485 53.0399C39.8597 49.8113 44.8244 42.9666 47.4465 35.89C50.0745 28.7977 50.4171 21.3207 49.817 16.5304C49.7169 15.731 49.0839 15.1032 48.2837 15.0097C45.7446 14.7131 42.277 13.9893 39.0038 13.0884C35.6916 12.1767 32.7742 11.1363 31.2423 10.2609C30.632 9.91216 29.9001 9.97126 29.3619 10.3522ZM30.3886 13.7625C28.4661 14.714 25.7733 15.6646 23.0086 16.461C20.296 17.2425 17.3957 17.9093 14.8927 18.2955C14.5381 22.6363 14.871 28.8435 16.9109 34.7113C19.0965 40.9985 23.181 46.7563 30.3668 49.5921C37.5883 46.7531 41.83 40.9744 44.1646 34.6739C46.3389 28.8059 46.8028 22.6117 46.4765 18.2964C43.9413 17.9111 40.9152 17.2446 38.075 16.4629C35.1934 15.6697 32.3591 14.7192 30.3886 13.7625ZM38.968 25.3267C39.3661 25.7095 39.3786 26.3425 38.9958 26.7407L30.6505 35.4207C30.4664 35.6121 30.2137 35.7225 29.9482 35.7274C29.6826 35.7323 29.426 35.6314 29.2349 35.4469L24.0994 30.4869C23.7021 30.1032 23.6911 29.4701 24.0748 29.0729C24.4585 28.6756 25.0915 28.6646 25.4888 29.0483L29.9034 33.312L37.554 25.3545C37.9368 24.9564 38.5699 24.944 38.968 25.3267Z" fill="url(#paint0_radial_472_4113)"/>
<defs>
<radialGradient id="paint0_radial_472_4113" cx="0" cy="0" r="1" gradientUnits="userSpaceOnUse" gradientTransform="translate(19.0666 33.226) scale(33.5842 49.8423)">
<stop offset="0.01" stop-color="#2C35A2"/>
<stop offset="0.16" stop-color="#252C88"/>
<stop offset="0.4" stop-color="#1B2167"/>
<stop offset="0.62" stop-color="#15194F"/>
<stop offset="0.83" stop-color="#101540"/>
<stop offset="1" stop-color="#0F133B"/>
</radialGradient>
</defs>
</svg>
