<svg width="62" height="62" viewBox="0 0 62 62" fill="none" xmlns="http://www.w3.org/2000/svg">
<circle cx="31" cy="31" r="31" fill="#6DE0F6"/>
<path fill-rule="evenodd" clip-rule="evenodd" d="M55.6893 23.2769H48.8351C48.1437 14.429 40.6869 7.43994 31.6202 7.43994C22.5535 7.43994 15.0967 14.429 14.4053 23.2769H7.55109C6.80504 23.2769 6.2002 23.8787 6.2002 24.621V39.0183C6.2002 39.7606 6.80504 40.3624 7.55109 40.3624H15.7036C16.4497 40.3624 17.0545 39.7606 17.0545 39.0183V24.621C17.0545 16.6297 23.5886 10.1282 31.6202 10.1282C39.6517 10.1282 46.1859 16.6297 46.1859 24.621V39.0183C46.1859 43.8342 42.2481 47.7522 37.408 47.7522H35.6434C35.0777 46.0806 33.4885 44.8728 31.6202 44.8728C29.2796 44.8728 27.3753 46.7675 27.3753 49.0964C27.3753 51.4252 29.2796 53.3199 31.6202 53.3199C33.4885 53.3199 35.0777 52.1122 35.6434 50.4405H37.408C43.2808 50.4405 48.137 46.0295 48.8078 40.3624H55.6893C56.4354 40.3624 57.0402 39.7606 57.0402 39.0183V24.621C57.0402 23.8787 56.4354 23.2769 55.6893 23.2769ZM14.3527 37.6741H8.90199V25.9652H14.3527V37.6741ZM31.6202 50.6317C30.7694 50.6317 30.0771 49.9429 30.0771 49.0964C30.0771 48.2498 30.7694 47.5611 31.6202 47.5611C32.471 47.5611 33.1633 48.2498 33.1633 49.0964C33.1633 49.9429 32.471 50.6317 31.6202 50.6317ZM54.3384 37.6741H48.8877V25.9652H54.3384V37.6741ZM39.9243 23.6573C39.4296 23.4594 38.8599 23.5687 38.4811 23.9343C38.4811 23.9343 34.8819 27.9242 32.9215 29.8151C32.041 30.6696 31.536 31.8502 31.536 33.0538C31.536 33.7598 32.129 34.3322 32.8604 34.3322H38.093V37.1616C38.093 37.8676 38.686 38.4399 39.4174 38.4399C40.1488 38.4399 40.7418 37.8676 40.7418 37.1616V34.3322H40.8359C41.5673 34.3322 42.1602 33.7598 42.1602 33.0538C42.1602 32.3479 41.5673 31.7755 40.8359 31.7755H40.7418V24.8384C40.7418 24.3214 40.419 23.8553 39.9243 23.6573ZM38.093 31.7755H34.6532C34.6983 31.7216 34.7461 31.67 34.7967 31.6208C35.2605 31.1735 35.7294 30.6082 36.2289 30.0059C36.798 29.3199 37.4067 28.586 38.093 27.9238V31.7755ZM29.8201 35.8832C30.4718 35.8832 31.0001 36.4556 31.0001 37.1616C31.0001 37.8677 30.4718 38.4399 29.8201 38.4399H23.5003C22.8486 38.4399 22.3202 37.8676 22.3202 37.1616C22.3202 35.958 22.77 34.7775 23.5546 33.9229C24.9768 32.3833 27.6832 29.4526 28.6401 28.4164V28.2615C28.6401 27.0788 27.752 26.1166 26.6602 26.1166C25.5513 26.1166 24.6803 27.0882 24.6803 28.26C24.6803 28.966 24.152 29.539 23.5003 29.539C22.8486 29.539 22.3202 28.9674 22.3202 28.2614V28.26C22.3202 25.6813 24.2434 23.5599 26.6602 23.5599C29.0533 23.5599 31.0002 25.669 31.0002 28.2615V28.9461C31.0002 29.2852 30.8757 29.6104 30.6544 29.8501C30.6544 29.8501 26.9698 33.8403 25.2254 35.7286C25.1804 35.7776 25.1377 35.8294 25.0977 35.8832H29.8201Z" fill="url(#paint0_radial_472_432)"/>
<defs>
<radialGradient id="paint0_radial_472_432" cx="0" cy="0" r="1" gradientUnits="userSpaceOnUse" gradientTransform="translate(16.4165 32.0816) scale(44.0046 52.9486)">
<stop offset="0.01" stop-color="#2C35A2"/>
<stop offset="0.16" stop-color="#252C88"/>
<stop offset="0.4" stop-color="#1B2167"/>
<stop offset="0.62" stop-color="#15194F"/>
<stop offset="0.83" stop-color="#101540"/>
<stop offset="1" stop-color="#0F133B"/>
</radialGradient>
</defs>
</svg>
