<svg width="62" height="62" viewBox="0 0 62 62" fill="none" xmlns="http://www.w3.org/2000/svg">
<circle cx="31" cy="31" r="31" fill="#6DE0F6"/>
<path fill-rule="evenodd" clip-rule="evenodd" d="M51.0599 30.9999C51.0599 42.0788 42.0788 51.0599 30.9999 51.0599C19.9211 51.0599 10.9399 42.0788 10.9399 30.9999C10.9399 19.9211 19.9211 10.9399 30.9999 10.9399C42.0788 10.9399 51.0599 19.9211 51.0599 30.9999ZM54.5599 30.9999C54.5599 44.0118 44.0118 54.5599 30.9999 54.5599C17.9881 54.5599 7.43994 44.0118 7.43994 30.9999C7.43994 17.9881 17.9881 7.43994 30.9999 7.43994C44.0118 7.43994 54.5599 17.9881 54.5599 30.9999ZM31.9999 20.8469C31.9999 20.2946 31.5522 19.8469 30.9999 19.8469C30.4477 19.8469 29.9999 20.2946 29.9999 20.8469V31.2714V31.8041L30.442 32.1013L36.9031 36.4449C37.3614 36.753 37.9828 36.6312 38.2909 36.1729C38.599 35.7146 38.4773 35.0932 38.0189 34.7851L31.9999 30.7387V20.8469Z" fill="url(#paint0_radial_472_4176)"/>
<defs>
<radialGradient id="paint0_radial_472_4176" cx="0" cy="0" r="1" gradientUnits="userSpaceOnUse" gradientTransform="translate(16.9087 32.7476) scale(40.7847 54.3796)">
<stop offset="0.01" stop-color="#2C35A2"/>
<stop offset="0.16" stop-color="#252C88"/>
<stop offset="0.4" stop-color="#1B2167"/>
<stop offset="0.62" stop-color="#15194F"/>
<stop offset="0.83" stop-color="#101540"/>
<stop offset="1" stop-color="#0F133B"/>
</radialGradient>
</defs>
</svg>
