<svg width="44" height="46" viewBox="0 0 44 46" fill="none" xmlns="http://www.w3.org/2000/svg">
<path d="M28.5844 23.4061H17.3809V43.294H28.5844V23.4061Z" fill="#FF5A00"/>
<path d="M18.1272 33.3499C18.1272 29.3093 20.0497 25.7231 22.9998 23.406C20.8287 21.7193 18.09 20.7 15.1026 20.7C8.02586 20.7 2.2998 26.3576 2.2998 33.3499C2.2998 40.3422 8.02586 45.9999 15.1026 45.9999C18.09 45.9999 20.8287 44.9806 22.9998 43.2939C20.0456 41.0095 18.1272 37.3906 18.1272 33.3499Z" fill="#EB001B"/>
<path d="M43.699 33.3499C43.699 40.3422 37.9729 45.9999 30.8962 45.9999C27.9088 45.9999 25.1701 44.9806 22.999 43.2939C25.9863 40.9727 27.8716 37.3906 27.8716 33.3499C27.8716 29.3093 25.9491 25.7231 22.999 23.406C25.166 21.7193 27.9047 20.7 30.892 20.7C37.9729 20.7 43.699 26.3945 43.699 33.3499Z" fill="#F79E1B"/>
<path fill-rule="evenodd" clip-rule="evenodd" d="M22.6005 4.41179C22.5756 6.33408 24.3525 7.40682 25.6909 8.04463C27.0661 8.69911 27.528 9.11876 27.5228 9.7039C27.5123 10.5996 26.4257 10.9948 25.4088 11.0102C23.6346 11.0371 22.6031 10.5418 21.783 10.1671L21.144 13.0916C21.9668 13.4625 23.4903 13.7859 25.0702 13.8C28.7786 13.8 31.2048 12.0098 31.218 9.23425C31.2325 5.71176 26.2355 5.51668 26.2696 3.94214C26.2814 3.46479 26.7472 2.95529 27.7681 2.8257C28.2733 2.76032 29.6682 2.71021 31.2495 3.42238L31.8702 0.592939C31.0199 0.29006 29.9267 0 28.566 0C25.0755 0 22.6203 1.8145 22.6005 4.41179ZM37.8343 0.243801C37.1572 0.243801 36.5864 0.630118 36.3318 1.22295L31.0343 13.5921H34.74L35.4775 11.5992H40.006L40.4338 13.5921H43.6999L40.8497 0.243801H37.8343ZM38.3526 3.84972L39.422 8.86203H36.4932L38.3526 3.84972ZM18.1075 0.243801L15.1865 13.5921H18.7177L21.6374 0.243801H18.1075ZM12.8835 0.243801L9.20791 9.32912L7.72112 1.60403C7.54665 0.741762 6.85772 0.243801 6.09265 0.243801H0.0840128L0 0.6314C1.23354 0.893148 2.635 1.31536 3.48398 1.76707C4.00357 2.04292 4.15193 2.28415 4.32247 2.93991L7.1385 13.5921H10.8706L16.5919 0.243801H12.8835Z" fill="#1A1F71"/>
</svg>
